<svg xmlns="http://www.w3.org/2000/svg" viewBox="0 0 320 240" fill="none">
  <rect width="320" height="240" rx="24" fill="#E2CDB0"/>
  <ellipse cx="160" cy="195" rx="100" ry="18" fill="#A67C52" opacity=".35"/>
  <g transform="translate(40 90) rotate(-12)">
    <rect width="120" height="48" rx="24" fill="#1F3D28"/>
    <rect x="8" y="8" width="104" height="32" rx="16" fill="#F4EFE4"/>
    <rect x="28" y="16" width="28" height="16" rx="8" fill="#C45C4A"/>
    <rect x="64" y="16" width="18" height="16" rx="8" fill="#E8B84A"/>
  </g>
  <g transform="translate(150 78) rotate(8)">
    <rect width="120" height="48" rx="24" fill="#1F3D28"/>
    <rect x="8" y="8" width="104" height="32" rx="16" fill="#F4EFE4"/>
    <rect x="30" y="16" width="22" height="16" rx="8" fill="#6F9E4E"/>
    <rect x="60" y="16" width="30" height="16" rx="8" fill="#C45C4A"/>
  </g>
  <g transform="translate(95 130) rotate(-4)">
    <rect width="120" height="48" rx="24" fill="#1F3D28"/>
    <rect x="8" y="8" width="104" height="32" rx="16" fill="#F4EFE4"/>
    <rect x="34" y="16" width="36" height="16" rx="8" fill="#8B5A2B"/>
  </g>
</svg>
