<?xml version="1.0" standalone="no"?>
<!DOCTYPE svg PUBLIC "-//W3C//DTD SVG 20010904//EN"
 "http://www.w3.org/TR/2001/REC-SVG-20010904/DTD/svg10.dtd">
<svg version="1.0" xmlns="http://www.w3.org/2000/svg"
 width="1254.000000pt" height="944.000000pt" viewBox="0 0 1254.000000 944.000000"
 preserveAspectRatio="xMidYMid meet">

<g transform="translate(0.000000,1254.000000) scale(0.100000,-0.100000)"
fill="#F1F1F1" stroke="none">
<path d="M0 6270 l0 -6270 6270 0 6270 0 0 6270 0 6270 -6270 0 -6270 0 0
-6270z m5620 4451 c53 -17 56 -17 99 2 129 56 307 -36 383 -200 76 -161 17
-361 -131 -450 -30 -18 -73 -35 -97 -39 -24 -3 -44 -9 -44 -13 0 -3 37 -33 83
-66 209 -150 473 -377 557 -479 71 -86 51 -133 -88 -212 -49 -28 -62 -40 -56
-53 40 -91 48 -129 36 -169 -29 -96 -99 -138 -263 -158 -112 -14 -194 -41
-225 -75 -20 -23 -37 -24 -53 -5 -41 49 101 139 244 156 135 16 188 40 211 96
12 28 11 39 -1 74 -8 23 -17 45 -20 50 -6 10 -122 -44 -240 -113 -99 -58 -177
-135 -210 -209 -25 -55 -27 -69 -23 -152 6 -126 42 -201 153 -312 153 -155
334 -202 493 -129 80 37 159 100 180 143 19 41 42 51 66 27 40 -40 -3 -115
-109 -190 -167 -119 -337 -130 -535 -33 -67 33 -102 58 -165 123 -254 256
-229 590 57 778 31 20 148 84 260 142 112 58 212 115 223 126 l20 20 -113 109
c-62 60 -156 145 -210 188 -94 77 -368 282 -376 282 -2 0 -6 -18 -10 -39 -19
-123 -185 -220 -334 -195 l-60 10 -5 -62 c-13 -171 -151 -309 -342 -345 -92
-17 -90 -15 -63 -52 71 -93 111 -194 127 -315 14 -103 4 -146 -32 -150 -21 -3
-38 6 -67 32 -95 86 -239 65 -299 -43 -69 -125 -15 -312 127 -443 81 -73 148
-102 246 -104 50 -1 83 -7 91 -16 24 -25 113 -252 129 -330 28 -135 18 -293
-26 -422 -36 -107 -126 -267 -240 -426 -313 -438 -378 -567 -378 -744 1 -143
48 -238 163 -322 115 -85 298 -134 504 -134 149 0 152 1 103 57 -182 207 -90
483 176 525 204 31 393 -142 370 -338 -16 -134 -89 -217 -241 -274 -23 -9 -26
-13 -15 -21 39 -25 177 -70 259 -85 78 -14 103 -15 164 -5 140 23 230 84 406
276 60 65 142 147 183 181 164 143 339 184 484 114 57 -28 126 -106 155 -174
l22 -55 49 25 c136 69 279 259 368 491 95 247 125 429 210 1286 l29 299 46 76
c53 90 55 106 25 317 -31 220 -29 216 -61 93 -41 -157 -92 -268 -123 -268 -7
0 -38 -14 -69 -31 -70 -37 -214 -69 -318 -69 -82 0 -99 -9 -114 -60 -13 -41
-43 -77 -72 -85 -21 -5 -48 4 -123 43 -96 50 -148 66 -175 56 -28 -11 -15 -33
45 -74 105 -71 143 -144 161 -309 29 -250 -50 -685 -164 -904 -120 -233 -312
-307 -534 -207 -90 41 -117 60 -323 226 -96 77 -203 160 -238 183 -238 161
-444 153 -610 -24 -34 -36 -67 -65 -74 -65 -18 0 -48 31 -48 51 0 31 129 154
199 189 80 40 189 63 256 55 172 -22 312 -101 601 -341 211 -175 300 -223 417
-224 39 0 83 7 105 15 48 21 115 86 157 155 102 168 184 562 172 825 -9 189
-36 250 -146 324 -63 43 -71 55 -71 106 0 44 56 95 104 95 47 0 133 -27 193
-61 72 -40 84 -38 107 17 29 70 69 90 191 97 121 7 242 37 301 74 62 39 67 50
170 410 29 103 124 97 124 -7 0 -20 9 -86 19 -146 27 -152 45 -337 37 -387 -4
-23 -24 -73 -45 -112 l-38 -70 -32 -350 c-71 -775 -127 -1071 -255 -1341 -94
-198 -228 -356 -358 -424 l-66 -34 -4 -110 c-6 -126 -26 -190 -84 -269 -156
-213 -477 -131 -475 122 0 108 48 184 148 235 18 9 87 27 154 40 67 14 126 29
131 34 17 17 -11 81 -54 128 -78 85 -194 97 -324 35 -60 -29 -96 -60 -274
-240 -218 -219 -276 -263 -396 -301 -181 -56 -411 -18 -606 100 l-66 40 -74
-10 c-40 -5 -125 -10 -189 -10 -485 -1 -794 258 -741 622 23 160 108 320 341
645 252 353 304 462 317 673 5 69 2 116 -9 171 -15 72 -80 254 -97 272 -4 5
-33 11 -64 13 -284 20 -528 350 -451 610 47 158 180 242 323 203 31 -9 66 -20
76 -24 17 -8 19 -5 14 31 -9 62 -44 143 -98 229 -27 43 -50 84 -50 91 0 6 -20
17 -44 24 -156 43 -210 242 -90 324 68 46 156 29 191 -37 13 -24 17 -55 17
-125 l0 -94 41 6 c71 11 165 47 208 80 71 54 99 111 106 216 9 128 14 131 167
115 83 -9 130 3 179 47 49 42 69 103 62 183 -9 93 21 119 86 73 24 -17 46 -23
87 -23 219 1 315 290 152 458 -57 60 -145 97 -192 82 -19 -6 -18 -9 14 -46 59
-70 73 -188 29 -248 -24 -31 -64 -39 -83 -16 -12 14 -11 21 2 48 36 72 32 108
-18 164 -28 32 -35 36 -44 23 -5 -8 -10 -27 -10 -41 0 -14 -9 -34 -19 -43 -16
-14 -23 -15 -41 -6 -20 11 -22 18 -17 63 2 29 7 59 11 68 9 21 -18 29 -105 29
-78 0 -145 -21 -217 -68 -48 -31 -111 -97 -101 -106 2 -2 27 -15 55 -29 107
-54 156 -117 158 -201 0 -64 -27 -113 -82 -144 -144 -81 -309 76 -275 263 l9
54 -54 7 c-60 7 -185 -10 -247 -34 -44 -17 -135 -73 -135 -83 0 -3 19 -14 43
-25 54 -24 123 -88 148 -135 47 -94 33 -195 -40 -269 -78 -82 -178 -91 -264
-26 -101 77 -123 209 -61 371 16 42 -114 -15 -186 -82 -139 -128 -196 -369
-133 -563 l18 -55 78 -2 c141 -4 237 -73 237 -170 0 -133 -177 -140 -296 -11
-23 25 -43 51 -46 59 -4 12 -11 11 -42 -5 -145 -76 -189 -302 -95 -488 39 -78
43 -80 102 -47 118 65 231 12 229 -107 -1 -110 -108 -150 -227 -86 l-57 31
-24 -56 c-84 -189 -66 -361 48 -475 37 -37 99 -72 141 -80 16 -2 19 5 23 49
10 129 86 213 191 213 89 0 140 -63 131 -161 -7 -66 -46 -115 -126 -156 -33
-17 -67 -33 -74 -35 -21 -7 38 -83 91 -118 128 -85 321 -87 510 -4 63 28 84
30 102 8 22 -27 -8 -63 -76 -91 -196 -80 -405 -85 -547 -12 -58 30 -136 106
-164 160 -23 46 -39 59 -73 59 -10 0 -50 16 -89 35 -155 78 -242 239 -229 425
5 81 50 217 87 270 l22 31 -25 32 c-169 222 -130 572 75 675 l45 22 -25 72
c-32 94 -36 267 -8 368 59 216 211 363 403 392 71 10 83 15 126 54 107 96 242
138 419 132 65 -2 118 -1 118 4 0 19 124 137 171 163 120 65 256 82 369 46z
m1853 -520 c84 -55 84 -161 -1 -218 -18 -12 -37 -23 -41 -25 -7 -2 -51 -348
-51 -394 0 -6 18 -18 40 -27 143 -56 76 -257 -87 -257 -92 0 -154 53 -155 131
-1 66 25 108 83 132 27 12 51 28 53 36 3 9 12 93 21 186 9 94 18 176 21 184 2
7 -12 28 -32 45 -31 27 -37 39 -41 81 -3 39 1 58 17 83 36 58 119 79 173 43z
m-1554 -505 c68 -132 -9 -269 -159 -284 -106 -10 -249 80 -184 116 12 7 36 2
78 -15 93 -38 170 -19 205 52 14 29 11 44 -20 122 -11 26 -10 34 1 48 23 28
52 14 79 -39z m1246 -379 c11 -17 35 -41 53 -53 l32 -22 -35 -12 c-41 -14 -70
-7 -61 15 4 10 -1 15 -16 15 -32 0 -138 31 -138 41 0 7 110 46 135 48 6 0 19
-14 30 -32z m496 -7 c58 -30 92 -88 97 -165 6 -87 -18 -164 -67 -215 -41 -44
-66 -53 -56 -20 9 28 -10 25 -23 -4 -16 -35 -112 -65 -172 -54 -25 5 -73 12
-108 16 l-63 7 63 65 c70 73 108 90 202 90 58 0 96 -22 96 -55 0 -8 4 -15 8
-15 24 0 65 156 52 200 -12 41 -41 88 -59 95 -28 11 -30 -11 -5 -47 28 -39 41
-101 30 -144 -7 -26 -7 -26 -28 -8 -16 16 -36 19 -107 18 -96 -1 -126 -12
-185 -68 l-36 -34 6 37 c4 20 13 52 21 72 13 33 20 38 79 54 45 12 82 16 119
11 80 -9 83 17 6 43 -24 8 -38 8 -45 1 -5 -5 -27 -10 -47 -10 -55 0 -99 -11
-99 -25 0 -6 -8 -19 -19 -29 -21 -19 -40 -63 -68 -156 -16 -54 -26 -70 -62
-97 -35 -27 -52 -33 -92 -33 -42 0 -49 3 -49 20 0 10 9 24 20 30 12 6 20 21
20 36 0 17 17 41 51 74 46 44 51 53 45 81 -7 35 -42 89 -58 89 -40 0 -133
-118 -126 -161 2 -18 12 -10 57 45 29 37 59 65 65 63 6 -2 12 -16 14 -31 3
-20 -6 -38 -36 -70 -51 -55 -77 -105 -63 -119 7 -7 3 -15 -12 -28 -21 -17 -23
-17 -57 3 -94 56 -120 104 -120 218 0 78 24 138 68 169 30 21 32 21 79 5 26
-9 49 -17 50 -18 2 -1 -18 -17 -43 -34 -62 -44 -84 -95 -80 -190 2 -73 16
-107 32 -80 5 7 8 49 9 93 0 91 20 131 77 158 69 32 73 31 127 -21 28 -27 51
-54 51 -61 0 -6 5 -11 10 -11 13 0 2 50 -17 71 -12 14 -8 19 38 38 28 11 69
21 91 21 50 0 108 30 144 74 28 35 31 36 82 31 30 -3 71 -14 93 -25z m-836
-341 c10 -45 70 -106 138 -140 48 -24 72 -29 128 -29 40 0 85 7 109 16 38 16
50 15 168 -1 l127 -17 85 30 c105 37 160 68 160 92 0 10 7 23 15 30 13 11 21
8 45 -15 16 -16 32 -37 35 -46 8 -24 -10 -56 -36 -64 -12 -4 -42 -20 -67 -36
-46 -29 -82 -37 -82 -19 0 6 -7 10 -15 10 -8 0 -15 -9 -15 -20 0 -11 -6 -20
-12 -21 -7 0 -51 -4 -98 -9 -47 -5 -115 -12 -152 -16 -110 -11 -340 28 -455
78 -96 42 -127 65 -118 91 4 8 2 18 -4 22 -6 3 -14 -1 -17 -10 -5 -12 -9 -13
-21 -4 -10 9 -17 9 -25 1 -16 -16 24 -66 75 -94 33 -19 41 -29 39 -48 -1 -13
-4 -25 -6 -28 -8 -8 -83 38 -113 70 -44 46 -51 84 -21 127 20 30 95 81 119 81
4 0 10 -14 14 -31z m1021 -224 c-3 -8 -16 -21 -31 -31 -21 -14 -30 -14 -55 -4
-17 7 -30 18 -30 24 0 6 26 25 58 41 l57 30 3 -23 c2 -13 1 -30 -2 -37z
m-1074 -52 c30 -15 76 -42 102 -60 44 -29 182 -79 286 -102 66 -15 202 -13
337 5 137 19 209 43 254 85 47 44 63 39 56 -17 -6 -57 -43 -98 -106 -118 -71
-23 -169 -44 -246 -51 -39 -4 -94 -18 -125 -32 -72 -32 -130 -38 -230 -24
-167 25 -372 112 -415 177 -22 34 -31 139 -15 179 l12 30 18 -22 c9 -12 42
-35 72 -50z m172 43 c71 -28 288 -66 379 -66 34 0 82 5 106 11 24 5 46 7 49 5
10 -10 -29 -56 -69 -83 -60 -40 -148 -44 -215 -10 -35 18 -74 27 -139 32 -130
10 -185 43 -185 109 0 32 -1 32 74 2z m784 -37 c4 -34 -38 -69 -82 -69 -36 0
-116 34 -116 49 0 11 17 17 80 26 25 4 52 11 60 16 28 16 55 6 58 -22z m-179
-82 l41 -24 -51 -11 c-28 -7 -60 -12 -71 -12 -18 0 -18 3 9 34 15 19 29 35 29
35 1 1 20 -9 43 -22z m-771 -306 c3 -45 9 -61 37 -94 19 -22 42 -60 51 -84 46
-119 -55 -206 -415 -359 -215 -91 -268 -129 -258 -187 14 -88 95 -200 171
-235 24 -12 68 -24 97 -28 60 -7 79 -18 79 -44 0 -29 -27 -43 -85 -42 -151 1
-328 170 -350 333 -5 35 -2 58 13 91 31 71 73 97 325 204 236 100 347 172 347
225 0 12 -20 48 -45 81 -38 51 -45 67 -45 107 0 56 23 93 53 89 19 -3 22 -10
25 -57z m405 -3545 c138 -27 266 -95 359 -192 43 -46 118 -179 118 -212 0 -28
-75 -142 -94 -142 -31 0 -38 26 -22 81 32 106 13 165 -85 261 -100 98 -243
148 -421 148 -163 0 -283 -45 -378 -141 -109 -111 -160 -252 -160 -443 0 -193
46 -322 153 -430 108 -108 209 -146 388 -146 280 0 459 114 534 341 27 81 41
96 71 74 17 -12 17 -18 6 -62 -39 -149 -149 -281 -292 -352 -117 -57 -205 -74
-355 -68 -131 5 -194 22 -294 78 -154 86 -269 237 -316 414 -20 77 -20 232 0
310 21 82 75 188 130 257 85 106 242 201 375 227 71 14 201 12 283 -3z m-3343
-38 c5 -13 34 -189 65 -392 30 -204 57 -371 58 -373 2 -1 36 169 76 380 40
210 77 387 83 394 6 7 32 13 59 13 37 0 51 -4 59 -19 11 -22 -5 -45 -39 -56
-10 -3 -23 -16 -29 -30 -6 -13 -57 -266 -113 -562 -63 -332 -108 -545 -117
-555 -20 -23 -138 -25 -168 -4 -30 23 -7 50 51 58 104 15 104 26 11 588 -42
250 -81 465 -86 478 -5 12 -22 27 -37 33 -35 13 -44 28 -32 51 8 15 22 18 80
18 63 0 70 -2 79 -22z m919 8 c15 -18 5 -41 -24 -54 -32 -15 -36 -37 -33 -162
l3 -105 133 168 133 167 48 0 c32 0 53 -5 62 -16 19 -23 1 -43 -59 -66 -47
-18 -63 -32 -148 -138 l-96 -119 67 -63 c122 -113 174 -210 260 -484 26 -82
61 -175 78 -207 33 -64 94 -130 141 -154 39 -20 47 -32 35 -55 -13 -24 -31
-23 -95 9 -118 58 -189 171 -288 460 -31 89 -67 186 -80 217 -28 64 -93 161
-130 195 -25 24 -26 24 -46 6 -19 -17 -20 -30 -20 -369 0 -193 4 -356 8 -361
4 -6 19 -18 35 -28 31 -20 33 -29 11 -51 -18 -19 -173 -23 -205 -6 -28 15 -23
38 10 58 17 9 32 26 35 37 3 11 6 248 6 528 0 494 -1 508 -20 527 -11 11 -24
20 -29 20 -15 0 -22 32 -10 46 8 10 38 14 109 14 71 0 101 -4 109 -14z m1064
-8 c8 -13 38 -185 67 -388 29 -201 54 -367 56 -369 6 -7 13 23 83 393 43 225
75 372 83 377 22 14 95 10 108 -6 16 -20 6 -43 -24 -55 -34 -13 -44 -36 -66
-148 -10 -53 -58 -299 -105 -547 -63 -333 -90 -453 -102 -462 -22 -17 -145
-17 -161 -1 -7 7 -12 20 -12 30 0 18 8 21 82 33 81 13 80 37 -7 570 -42 253
-81 472 -86 487 -6 14 -24 32 -39 38 -16 7 -31 19 -34 27 -12 29 14 43 80 43
55 0 65 -3 77 -22z m2327 7 c16 -20 6 -43 -23 -54 -16 -6 -26 -20 -31 -41 -10
-51 -7 -795 3 -785 10 11 24 45 200 470 127 309 134 337 84 356 -29 11 -39 34
-23 54 10 11 36 15 111 15 84 0 100 -3 108 -18 11 -21 6 -31 -32 -55 l-27 -18
2 -531 3 -532 24 -12 c35 -18 44 -39 25 -59 -24 -24 -202 -18 -218 8 -9 15 -7
22 12 37 12 10 28 20 35 23 9 3 13 98 15 410 2 224 -1 407 -5 407 -4 0 -27
-46 -50 -103 -23 -56 -94 -227 -157 -380 -123 -297 -129 -323 -80 -346 30 -14
40 -37 24 -56 -18 -22 -192 -21 -214 1 -19 19 -10 40 25 58 l24 12 3 531 2
532 -30 21 c-28 20 -39 48 -23 63 3 4 50 7 103 7 74 0 101 -4 110 -15z m-4360
-1720 c0 -8 7 -15 16 -15 8 0 29 -13 45 -29 23 -23 29 -38 29 -71 0 -33 -6
-48 -29 -71 -16 -16 -37 -29 -45 -29 -9 0 -16 -7 -16 -15 0 -8 -4 -15 -10 -15
-5 0 -10 7 -10 15 0 8 -7 15 -16 15 -8 0 -29 13 -45 29 -52 52 -31 148 36 165
14 4 25 13 25 21 0 8 5 15 10 15 6 0 10 -7 10 -15z m249 -75 c18 -41 33 -76
35 -77 2 -2 18 35 36 82 18 47 37 85 42 85 5 0 6 -10 2 -22 -14 -47 -84 -212
-93 -221 -5 -5 -19 -7 -32 -5 -24 4 -24 4 4 16 15 6 27 19 27 28 0 9 -16 52
-35 97 -34 78 -45 122 -26 102 5 -6 23 -44 40 -85z m376 65 c30 -30 32 -64 4
-99 -17 -21 -29 -26 -65 -26 l-44 0 0 -50 c0 -27 -4 -50 -10 -50 -6 0 -10 48
-10 125 l0 125 50 0 c41 0 56 -5 75 -25z m185 -90 l0 -115 45 0 45 0 0 116 c0
74 4 113 10 109 6 -4 10 -54 10 -116 l0 -110 43 3 42 3 5 115 c6 145 22 123
18 -26 l-3 -109 -117 -3 -118 -3 0 126 c0 77 4 125 10 125 6 0 10 -45 10 -115z
m505 105 c4 -6 -17 -10 -54 -10 l-61 0 0 -50 0 -50 56 0 c34 0 53 -4 49 -10
-3 -5 -28 -10 -56 -10 l-49 0 0 -45 0 -45 60 0 c33 0 60 -4 60 -10 0 -6 -30
-10 -70 -10 l-70 0 0 125 0 125 64 0 c36 0 68 -4 71 -10z m300 0 c4 -6 -10
-10 -34 -10 l-41 0 0 -115 c0 -70 -4 -115 -10 -115 -6 0 -10 45 -10 115 l0
115 -41 0 c-24 0 -38 4 -34 10 3 6 42 10 85 10 43 0 82 -4 85 -10z m228 -108
l67 -3 0 55 c0 30 5 58 10 61 6 4 10 -38 10 -119 0 -77 -4 -126 -10 -126 -5 0
-10 25 -10 55 l0 55 -70 0 -70 0 0 -55 c0 -30 -4 -55 -10 -55 -12 0 -14 233
-2 244 4 4 9 -18 12 -51 l5 -58 68 -3z m312 6 c64 -5 95 -28 95 -70 0 -15 -9
-37 -20 -48 -17 -17 -31 -20 -83 -18 l-62 3 -3 109 c-3 115 10 185 16 85 l3
-57 54 -4z m145 -19 c0 -73 -4 -119 -10 -119 -6 0 -10 49 -10 126 0 81 4 123
10 119 6 -4 10 -57 10 -126z m290 121 c0 -6 -27 -10 -61 -10 l-60 0 3 -47 3
-48 53 -3 c69 -4 67 -22 -3 -22 l-55 0 0 -45 0 -45 60 0 c33 0 60 -4 60 -10 0
-6 -30 -10 -70 -10 l-70 0 0 125 0 125 70 0 c40 0 70 -4 70 -10z m442 -7 c24
-29 27 -49 12 -78 -13 -25 -13 -30 1 -45 39 -43 2 -110 -60 -110 -37 0 -75 28
-75 55 0 22 14 18 25 -7 12 -27 67 -37 91 -17 25 21 13 62 -23 79 -37 17 -43
30 -14 30 29 0 53 38 40 62 -6 11 -17 22 -25 25 -24 9 -61 -6 -67 -27 -3 -11
-10 -20 -16 -20 -17 0 -13 14 10 44 25 31 77 36 101 9z m297 -99 c43 -122 46
-134 33 -134 -5 0 -14 18 -21 40 -12 40 -12 40 -61 40 -49 0 -51 -1 -66 -40
-9 -22 -20 -40 -25 -40 -12 0 -13 -4 25 101 51 141 55 149 64 149 5 0 28 -52
51 -116z m191 61 c0 -46 3 -55 18 -55 11 0 31 21 51 55 18 30 37 55 42 55 15
0 10 -14 -26 -67 l-35 -52 42 -60 c54 -79 43 -89 -14 -14 -57 75 -72 75 -76 1
-2 -32 -7 -58 -12 -58 -6 0 -10 53 -10 125 0 77 4 125 10 125 6 0 10 -25 10
-55z m295 -37 c15 -38 31 -68 34 -68 4 0 19 34 35 75 28 73 46 101 46 72 0
-18 -76 -206 -91 -223 -13 -16 -64 -19 -54 -4 3 6 14 10 25 10 32 0 30 29 -10
122 -22 50 -40 96 -40 102 0 22 28 -22 55 -86z m396 63 c16 -16 29 -37 29 -45
0 -25 -13 -18 -35 17 -33 52 -103 50 -131 -5 -23 -44 -14 -125 16 -150 36 -29
85 -24 112 12 12 17 25 30 30 30 16 0 7 -22 -21 -51 -31 -31 -83 -39 -122 -19
-67 37 -64 195 5 229 41 20 86 13 117 -18z m189 -32 c0 -67 19 -64 66 9 45 70
58 54 13 -17 l-31 -52 41 -59 c22 -32 41 -61 41 -64 0 -18 -21 1 -58 54 -24
33 -49 60 -57 60 -12 0 -15 -14 -15 -60 0 -33 -4 -60 -10 -60 -6 0 -10 49 -10
126 0 81 4 123 10 119 6 -3 10 -28 10 -56z m282 -41 l3 -103 75 102 c41 56 78
103 83 103 4 0 7 -56 7 -125 0 -151 -18 -171 -22 -24 l-3 100 -73 -100 c-40
-56 -77 -101 -83 -101 -5 0 -9 53 -9 125 0 152 18 170 22 23z"/>
<path d="M5126 10391 c-3 -4 -8 -27 -12 -50 -13 -83 45 -175 110 -175 43 0 64
17 72 59 7 42 -13 83 -60 119 -44 33 -103 59 -110 47z"/>
<path d="M4504 10187 c-47 -103 -24 -236 48 -273 71 -37 158 9 174 92 16 84
-54 184 -150 217 l-47 16 -25 -52z"/>
<path d="M4718 9609 c-24 -13 -33 -72 -17 -110 11 -28 60 -69 82 -69 11 0 8
149 -3 171 -12 21 -35 24 -62 8z"/>
<path d="M4180 9432 c0 -25 111 -102 146 -102 54 0 27 61 -40 91 -42 19 -106
26 -106 11z"/>
<path d="M4124 8796 c-18 -8 -35 -19 -39 -26 -17 -27 82 -63 110 -40 19 16 19
44 -1 64 -19 19 -29 19 -70 2z"/>
<path d="M4344 8251 c-46 -28 -85 -147 -55 -165 16 -10 111 46 126 75 21 40
19 86 -4 99 -26 14 -31 13 -67 -9z"/>
<path d="M5518 6367 c-59 -17 -90 -37 -125 -83 -39 -52 -45 -151 -13 -215 32
-64 128 -159 161 -159 40 0 134 35 183 69 70 48 108 149 87 228 -33 123 -165
195 -293 160z"/>
<path d="M7191 5945 c-24 -7 -73 -19 -110 -25 -130 -22 -201 -84 -201 -178 0
-101 78 -171 176 -156 55 8 98 36 141 92 41 54 54 96 60 200 6 92 8 90 -66 67z"/>
<path d="M7382 10148 c-37 -18 -46 -81 -14 -105 40 -32 102 -2 102 48 0 30 -9
43 -37 58 -25 13 -21 13 -51 -1z"/>
<path d="M7400 9440 c-29 -29 -24 -74 9 -78 46 -7 71 66 31 88 -16 8 -24 6
-40 -10z"/>
<path d="M7550 8970 c0 -5 5 -10 11 -10 5 0 7 5 4 10 -3 6 -8 10 -11 10 -2 0
-4 -4 -4 -10z"/>
<path d="M7146 8914 c-11 -8 -16 -14 -10 -14 13 0 39 18 34 24 -3 2 -14 -2
-24 -10z"/>
<path d="M7365 8751 c-7 -12 12 -24 25 -16 11 7 4 25 -10 25 -5 0 -11 -4 -15
-9z"/>
<path d="M6794 8585 c-4 -8 -1 -22 6 -30 18 -21 50 -19 50 3 0 36 -45 57 -56
27z"/>
<path d="M6982 8488 c4 -27 33 -36 42 -13 8 22 -1 35 -25 35 -15 0 -20 -6 -17
-22z"/>
<path d="M3725 2955 c-35 -34 -34 -86 1 -114 15 -12 31 -21 35 -21 5 0 9 36 9
80 0 87 -6 95 -45 55z"/>
<path d="M3790 2900 c0 -44 3 -80 6 -80 11 0 49 23 56 34 4 6 8 28 8 48 0 28
-6 42 -26 57 -15 12 -31 21 -35 21 -5 0 -9 -36 -9 -80z"/>
<path d="M4310 2955 l0 -55 39 0 c45 0 71 20 71 54 0 33 -31 56 -73 56 l-37 0
0 -55z"/>
<path d="M5893 2884 c-2 -7 -3 -27 -1 -46 3 -32 5 -33 51 -36 59 -4 79 10 75
52 -3 30 -5 31 -62 36 -40 4 -60 2 -63 -6z"/>
<path d="M7047 2941 c-9 -27 -17 -51 -17 -55 0 -3 18 -6 40 -6 l39 0 -14 40
c-25 72 -29 74 -48 21z"/>
</g>
</svg>
